<svg width="24" height="24" viewBox="0 0 24 24" fill="none" xmlns="http://www.w3.org/2000/svg">
<path d="M14.6667 0V2.66667H2.66667V21.3333H21.3333V9.33333H24V21.3333C24 22.0667 23.7391 22.6947 23.2173 23.2173C22.6947 23.7391 22.0667 24 21.3333 24H2.66667C1.93333 24 1.30533 23.7391 0.782667 23.2173C0.260889 22.6947 0 22.0667 0 21.3333V2.66667C0 1.93333 0.260889 1.30533 0.782667 0.782667C1.30533 0.260889 1.93333 0 2.66667 0H14.6667ZM21.3333 0V2.66667H24V5.33333H21.3333V8H18.6667V5.33333H16V2.66667H18.6667V0H21.3333ZM4 18.6667H20L15 12L11 17.3333L8 13.3333L4 18.6667ZM2.66667 2.66667V21.3333V2.66667Z" fill="rgb(2 132 199)"/>
</svg>
