<svg width="32" height="32" viewBox="0 0 32 32" fill="none" xmlns="http://www.w3.org/2000/svg">
<path d="M12.9231 0.192001C9.20989 0.192001 6.23019 2.74216 6.23019 7.616C6.23019 10.7988 7.49789 14.0406 9.42281 16.0382C10.1736 18.0357 8.81973 18.7791 8.53912 18.8849C4.65358 20.3102 0.114502 22.8948 0.114502 25.4622V26.4222C0.114502 29.9212 6.77789 30.7298 12.96 30.7298C14.3075 30.7276 15.6544 30.6767 16.9982 30.5772C15.3156 28.8012 14.3797 26.4465 14.384 24C14.384 21.7957 15.1348 19.776 16.3828 18.1538C16.1982 17.7206 16.1243 17.0375 16.4603 16C18.3742 14 19.6148 10.7865 19.6148 7.61477C19.6148 2.74215 16.6314 0.193232 12.9219 0.193232L12.9231 0.192001ZM24 16.2302C21.9395 16.2302 19.9634 17.0487 18.5064 18.5057C17.0494 19.9627 16.2308 21.9389 16.2308 23.9994C16.2308 26.0599 17.0494 28.036 18.5064 29.4931C19.9634 30.9501 21.9395 31.7686 24 31.7686C26.0606 31.7686 28.0367 30.9501 29.4937 29.4931C30.9507 28.036 31.7693 26.0599 31.7693 23.9994C31.7693 21.9389 30.9507 19.9627 29.4937 18.5057C28.0367 17.0487 26.0606 16.2302 24 16.2302ZM22.9231 19.6923H25.077V22.8849H28.2696V25.1151H25.077V28.3077H22.9231V25.1151H19.6923V22.8849H22.9231V19.6923Z" fill="#F5F4F2"/>
</svg>
