<svg width="20" height="28" viewBox="0 0 20 28" fill="none" xmlns="http://www.w3.org/2000/svg">
<path d="M7.33333 27.3333C5.28889 27.3333 3.55556 26.6222 2.13333 25.2C0.711111 23.7778 0 22.0445 0 20V6.00001C0 4.53334 0.522222 3.27778 1.56667 2.23334C2.61111 1.18889 3.86667 0.666672 5.33333 0.666672C6.8 0.666672 8.05556 1.18889 9.1 2.23334C10.1444 3.27778 10.6667 4.53334 10.6667 6.00001V16.6667H8.66667V6.00001C8.66667 5.06667 8.34444 4.27778 7.7 3.63334C7.05556 2.98889 6.26667 2.66667 5.33333 2.66667C4.4 2.66667 3.61111 2.98889 2.96667 3.63334C2.32222 4.27778 2 5.06667 2 6.00001V20C2 21.4667 2.52222 22.7222 3.56667 23.7667C4.61111 24.8111 5.86667 25.3333 7.33333 25.3333C7.97778 25.3333 8.58356 25.2276 9.15067 25.016C9.71689 24.8053 10.2222 24.5111 10.6667 24.1333V26.5333C10.1556 26.7778 9.62222 26.972 9.06667 27.116C8.51111 27.2609 7.93333 27.3333 7.33333 27.3333V27.3333ZM13.3333 22H10.6667C10.2889 22 9.97244 21.872 9.71733 21.616C9.46133 21.3609 9.33333 21.0445 9.33333 20.6667C9.33333 20.2889 9.46133 19.9725 9.71733 19.7173C9.97244 19.4613 10.2889 19.3333 10.6667 19.3333H13.3333V16.6667C13.3333 16.2889 13.4613 15.972 13.7173 15.716C13.9724 15.4609 14.2889 15.3333 14.6667 15.3333C15.0444 15.3333 15.3609 15.4609 15.616 15.716C15.872 15.972 16 16.2889 16 16.6667V19.3333H18.6667C19.0444 19.3333 19.3609 19.4613 19.616 19.7173C19.872 19.9725 20 20.2889 20 20.6667C20 21.0445 19.872 21.3609 19.616 21.616C19.3609 21.872 19.0444 22 18.6667 22H16V24.6667C16 25.0445 15.872 25.3609 15.616 25.616C15.3609 25.872 15.0444 26 14.6667 26C14.2889 26 13.9724 25.872 13.7173 25.616C13.4613 25.3609 13.3333 25.0445 13.3333 24.6667V22ZM7.33333 20V22C6.4 22 5.61111 21.6778 4.96667 21.0333C4.32222 20.3889 4 19.6 4 18.6667V7.00001C4 6.71112 4.09467 6.47245 4.284 6.28401C4.47244 6.09467 4.71111 6.00001 5 6.00001C5.28889 6.00001 5.528 6.09467 5.71733 6.28401C5.90578 6.47245 6 6.71112 6 7.00001V18.6667C6 19.0445 6.128 19.3609 6.384 19.616C6.63911 19.872 6.95556 20 7.33333 20ZM12.6667 12.6667V7.00001C12.6667 6.71112 12.7613 6.47245 12.9507 6.28401C13.1391 6.09467 13.3778 6.00001 13.6667 6.00001C13.9556 6.00001 14.1947 6.09467 14.384 6.28401C14.5724 6.47245 14.6667 6.71112 14.6667 7.00001V12.6667H12.6667Z" fill="#808A9D"/>
</svg>
