<svg width="28" height="22" viewBox="0 0 28 22" fill="none" xmlns="http://www.w3.org/2000/svg">
<path d="M22 8.97333V2.99999C22 1.53333 20.8 0.333328 19.3333 0.333328H3.33329C1.86663 0.333328 0.666626 1.53333 0.666626 2.99999V19C0.666626 20.4667 1.86663 21.6667 3.33329 21.6667H19.3333C20.8 21.6667 22 20.4667 22 19V13.0267L27.3333 18.3333V3.66666L22 8.97333ZM19.3333 7.91999V19H3.33329V2.99999H19.3333V7.91999V7.91999Z" fill="#F5F4F2"/>
<path d="M11.3333 11C12.8061 11 14 9.8061 14 8.33334C14 6.86058 12.8061 5.66667 11.3333 5.66667C9.86053 5.66667 8.66663 6.86058 8.66663 8.33334C8.66663 9.8061 9.86053 11 11.3333 11Z" fill="#F5F4F2"/>
<path d="M16.6667 15.5733C16.6667 14.4933 16.0267 13.5333 15.04 13.1067C13.8709 12.5964 12.609 12.333 11.3333 12.333C10.0577 12.333 8.7958 12.5964 7.62667 13.1067C7.14362 13.3131 6.7319 13.657 6.44269 14.0956C6.15348 14.5341 5.99954 15.048 6 15.5733V16.3333H16.6667V15.5733Z" fill="#F5F4F2"/>
</svg>
