<svg xmlns="http://www.w3.org/2000/svg" xmlns:xlink="http://www.w3.org/1999/xlink" width="500" zoomAndPan="magnify" viewBox="0 0 375 374.999991" height="500" preserveAspectRatio="xMidYMid meet" version="1.0"><defs><clipPath id="2df40fe999"><path d="M 7.207031 44.445312 L 284 44.445312 L 284 287 L 7.207031 287 Z M 7.207031 44.445312 " clip-rule="nonzero"/></clipPath><clipPath id="4b5100ca1e"><path d="M 119 95 L 367.796875 95 L 367.796875 337 L 119 337 Z M 119 95 " clip-rule="nonzero"/></clipPath></defs><rect x="-37.5" width="450" fill="#ffffff" y="-37.499999" height="449.999989" fill-opacity="1"/><rect x="-37.5" width="450" fill="#ffffff" y="-37.499999" height="449.999989" fill-opacity="1"/><rect x="-37.5" width="450" fill="rgb(7 89 133)" y="-37.499999" height="449.999989" fill-opacity="1"/><g clip-path="url(#2df40fe999)"><path fill="#ffffff" d="M 17.316406 44.445312 L 272.980469 44.445312 C 278.816406 44.445312 283.070312 48.703125 283.070312 54.546875 L 283.070312 213.65625 C 283.070312 218.992188 278.816406 223.757812 272.980469 223.757812 L 160.824219 223.757812 L 160.824219 203.550781 L 262.886719 203.550781 L 262.886719 64.648438 L 27.40625 64.648438 L 27.40625 203.550781 L 34.832031 203.550781 C 40.164062 203.550781 44.921875 207.808594 44.921875 213.65625 L 44.921875 250.382812 L 86.367188 206.726562 C 87.953125 204.632812 91.125 203.550781 94.367188 203.550781 L 119.882812 203.550781 L 119.882812 223.757812 L 98.621094 223.757812 L 42.253906 282.855469 C 38.003906 287.109375 31.660156 287.109375 27.910156 283.359375 C 25.820312 281.265625 24.742188 278.597656 24.742188 275.925781 L 24.742188 223.757812 L 17.316406 223.757812 C 11.984375 223.757812 7.226562 218.996094 7.226562 213.65625 L 7.226562 54.546875 C 7.226562 48.703125 11.984375 44.445312 17.316406 44.445312 Z M 17.316406 44.445312 " fill-opacity="1" fill-rule="nonzero"/></g><g clip-path="url(#4b5100ca1e)"><path fill="#ffffff" d="M 347.4375 115.230469 L 283.140625 115.230469 L 283.140625 95.027344 L 357.527344 95.027344 C 363.367188 95.027344 367.617188 99.789062 367.617188 105.128906 L 367.617188 264.238281 C 367.617188 269.578125 363.367188 274.339844 357.527344 274.339844 L 350.609375 274.339844 L 350.609375 326.507812 C 350.609375 329.179688 349.527344 331.847656 347.4375 333.941406 C 343.183594 337.695312 336.839844 337.695312 333.09375 333.4375 L 276.726562 274.339844 L 130.550781 274.339844 C 124.714844 274.339844 119.957031 269.578125 119.957031 264.238281 L 119.957031 105.128906 C 119.957031 99.789062 124.714844 95.027344 130.550781 95.027344 L 242.707031 95.027344 L 242.707031 115.230469 L 140.644531 115.230469 L 140.644531 254.136719 L 280.980469 254.136719 C 284.152344 254.136719 286.816406 255.21875 288.980469 257.886719 L 330.425781 300.964844 L 330.425781 264.238281 C 330.425781 258.390625 334.679688 254.136719 340.515625 254.136719 L 347.4375 254.136719 Z M 347.4375 115.230469 " fill-opacity="1" fill-rule="nonzero"/></g><path fill="#ffffff" d="M 160.824219 146.621094 L 181.007812 146.621094 L 181.007812 166.824219 L 160.824219 166.824219 Z M 160.824219 146.621094 " fill-opacity="1" fill-rule="nonzero"/><path fill="#ffffff" d="M 191.675781 146.621094 L 211.855469 146.621094 L 211.855469 166.824219 L 191.675781 166.824219 Z M 191.675781 146.621094 " fill-opacity="1" fill-rule="nonzero"/><path fill="#ffffff" d="M 222.523438 146.621094 L 242.707031 146.621094 L 242.707031 166.824219 L 222.523438 166.824219 Z M 222.523438 146.621094 " fill-opacity="1" fill-rule="nonzero"/></svg>