<svg xmlns="http://www.w3.org/2000/svg" xmlns:xlink="http://www.w3.org/1999/xlink" width="500" zoomAndPan="magnify" viewBox="0 0 375 374.999991" height="500" preserveAspectRatio="xMidYMid meet" version="1.0"><defs><g/><clipPath id="7f8161d76a"><path d="M 113.003906 81.945312 L 228 81.945312 L 228 182 L 113.003906 182 Z M 113.003906 81.945312 " clip-rule="nonzero"/></clipPath><clipPath id="5038fd3062"><path d="M 159 102 L 262.1875 102 L 262.1875 202.695312 L 159 202.695312 Z M 159 102 " clip-rule="nonzero"/></clipPath></defs><g fill="#0369a1" fill-opacity="1"><g transform="translate(40.265627, 264.839894)"><g><path d="M 16.6875 -5.9375 C 17.945312 -5.9375 19.125 -6.1875 20.21875 -6.6875 C 21.320312 -7.195312 22.378906 -7.992188 23.390625 -9.078125 L 27.8125 -4.484375 C 26.375 -2.898438 24.644531 -1.664062 22.625 -0.78125 C 20.613281 0.101562 18.523438 0.546875 16.359375 0.546875 C 14.304688 0.546875 12.367188 0.164062 10.546875 -0.59375 C 8.734375 -1.351562 7.171875 -2.378906 5.859375 -3.671875 C 4.546875 -4.972656 3.507812 -6.515625 2.75 -8.296875 C 2 -10.078125 1.625 -11.992188 1.625 -14.046875 C 1.625 -16.097656 2 -18.015625 2.75 -19.796875 C 3.507812 -21.578125 4.546875 -23.125 5.859375 -24.4375 C 7.171875 -25.75 8.734375 -26.785156 10.546875 -27.546875 C 12.367188 -28.304688 14.304688 -28.6875 16.359375 -28.6875 C 18.597656 -28.6875 20.742188 -28.242188 22.796875 -27.359375 C 24.847656 -26.472656 26.59375 -25.238281 28.03125 -23.65625 L 23.5 -18.84375 C 22.488281 -19.96875 21.40625 -20.816406 20.25 -21.390625 C 19.101562 -21.960938 17.863281 -22.25 16.53125 -22.25 C 14.40625 -22.25 12.613281 -21.457031 11.15625 -19.875 C 9.695312 -18.289062 8.96875 -16.347656 8.96875 -14.046875 C 8.96875 -11.742188 9.710938 -9.816406 11.203125 -8.265625 C 12.703125 -6.710938 14.53125 -5.9375 16.6875 -5.9375 Z M 16.6875 -5.9375 "/></g></g></g><g fill="#0369a1" fill-opacity="1"><g transform="translate(68.999817, 264.839894)"><g><path d="M 2.921875 0 L 2.921875 -37.8125 L 10.3125 -39.4375 L 10.3125 -25.921875 C 11.394531 -26.828125 12.59375 -27.515625 13.90625 -27.984375 C 15.21875 -28.453125 16.648438 -28.6875 18.203125 -28.6875 C 21.441406 -28.6875 24.101562 -27.640625 26.1875 -25.546875 C 28.28125 -23.460938 29.328125 -20.78125 29.328125 -17.5 L 29.328125 0 L 21.9375 0 L 21.9375 -16.421875 C 21.9375 -18.179688 21.40625 -19.601562 20.34375 -20.6875 C 19.28125 -21.769531 17.863281 -22.3125 16.09375 -22.3125 C 14.875 -22.3125 13.769531 -22.066406 12.78125 -21.578125 C 11.789062 -21.085938 10.96875 -20.394531 10.3125 -19.5 L 10.3125 0 Z M 2.921875 0 "/></g></g></g><g fill="#0369a1" fill-opacity="1"><g transform="translate(101.028715, 264.839894)"><g><path d="M 11.828125 0.484375 C 8.804688 0.484375 6.335938 -0.316406 4.421875 -1.921875 C 2.515625 -3.523438 1.5625 -5.601562 1.5625 -8.15625 C 1.5625 -10.820312 2.585938 -12.910156 4.640625 -14.421875 C 6.691406 -15.929688 9.519531 -16.6875 13.125 -16.6875 C 14.28125 -16.6875 15.429688 -16.597656 16.578125 -16.421875 C 17.734375 -16.242188 18.867188 -15.972656 19.984375 -15.609375 L 19.984375 -17.609375 C 19.984375 -19.234375 19.476562 -20.457031 18.46875 -21.28125 C 17.457031 -22.113281 15.984375 -22.53125 14.046875 -22.53125 C 12.859375 -22.53125 11.570312 -22.335938 10.1875 -21.953125 C 8.800781 -21.578125 7.222656 -20.992188 5.453125 -20.203125 L 2.75 -25.65625 C 4.945312 -26.664062 7.082031 -27.421875 9.15625 -27.921875 C 11.226562 -28.429688 13.269531 -28.6875 15.28125 -28.6875 C 19.0625 -28.6875 22.003906 -27.773438 24.109375 -25.953125 C 26.222656 -24.140625 27.28125 -21.570312 27.28125 -18.25 L 27.28125 0 L 19.984375 0 L 19.984375 -1.9375 C 18.796875 -1.113281 17.546875 -0.503906 16.234375 -0.109375 C 14.921875 0.285156 13.453125 0.484375 11.828125 0.484375 Z M 8.640625 -8.3125 C 8.640625 -7.238281 9.109375 -6.382812 10.046875 -5.75 C 10.984375 -5.125 12.226562 -4.8125 13.78125 -4.8125 C 15 -4.8125 16.117188 -4.960938 17.140625 -5.265625 C 18.171875 -5.566406 19.117188 -6.007812 19.984375 -6.59375 L 19.984375 -10.796875 C 19.085938 -11.160156 18.144531 -11.421875 17.15625 -11.578125 C 16.164062 -11.742188 15.128906 -11.828125 14.046875 -11.828125 C 12.347656 -11.828125 11.019531 -11.507812 10.0625 -10.875 C 9.113281 -10.25 8.640625 -9.394531 8.640625 -8.3125 Z M 8.640625 -8.3125 "/></g></g></g><g fill="#0369a1" fill-opacity="1"><g transform="translate(131.005173, 264.839894)"><g><path d="M 6.75 -7.9375 L 6.75 -21.9375 L 0.96875 -21.9375 L 0.96875 -28.140625 L 6.75 -28.140625 L 6.75 -35.328125 L 14.15625 -37 L 14.15625 -28.140625 L 22.140625 -28.140625 L 22.140625 -21.9375 L 14.15625 -21.9375 L 14.15625 -9.453125 C 14.15625 -8.117188 14.441406 -7.179688 15.015625 -6.640625 C 15.585938 -6.097656 16.597656 -5.828125 18.046875 -5.828125 C 18.722656 -5.828125 19.367188 -5.875 19.984375 -5.96875 C 20.597656 -6.0625 21.265625 -6.234375 21.984375 -6.484375 L 21.984375 -0.4375 C 21.191406 -0.175781 20.238281 0.03125 19.125 0.1875 C 18.007812 0.351562 17.054688 0.4375 16.265625 0.4375 C 13.128906 0.4375 10.757812 -0.269531 9.15625 -1.6875 C 7.550781 -3.113281 6.75 -5.195312 6.75 -7.9375 Z M 6.75 -7.9375 "/></g></g></g><g fill="#0369a1" fill-opacity="1"><g transform="translate(153.906103, 264.839894)"><g><path d="M 16.6875 -5.9375 C 17.945312 -5.9375 19.125 -6.1875 20.21875 -6.6875 C 21.320312 -7.195312 22.378906 -7.992188 23.390625 -9.078125 L 27.8125 -4.484375 C 26.375 -2.898438 24.644531 -1.664062 22.625 -0.78125 C 20.613281 0.101562 18.523438 0.546875 16.359375 0.546875 C 14.304688 0.546875 12.367188 0.164062 10.546875 -0.59375 C 8.734375 -1.351562 7.171875 -2.378906 5.859375 -3.671875 C 4.546875 -4.972656 3.507812 -6.515625 2.75 -8.296875 C 2 -10.078125 1.625 -11.992188 1.625 -14.046875 C 1.625 -16.097656 2 -18.015625 2.75 -19.796875 C 3.507812 -21.578125 4.546875 -23.125 5.859375 -24.4375 C 7.171875 -25.75 8.734375 -26.785156 10.546875 -27.546875 C 12.367188 -28.304688 14.304688 -28.6875 16.359375 -28.6875 C 18.597656 -28.6875 20.742188 -28.242188 22.796875 -27.359375 C 24.847656 -26.472656 26.59375 -25.238281 28.03125 -23.65625 L 23.5 -18.84375 C 22.488281 -19.96875 21.40625 -20.816406 20.25 -21.390625 C 19.101562 -21.960938 17.863281 -22.25 16.53125 -22.25 C 14.40625 -22.25 12.613281 -21.457031 11.15625 -19.875 C 9.695312 -18.289062 8.96875 -16.347656 8.96875 -14.046875 C 8.96875 -11.742188 9.710938 -9.816406 11.203125 -8.265625 C 12.703125 -6.710938 14.53125 -5.9375 16.6875 -5.9375 Z M 16.6875 -5.9375 "/></g></g></g><g fill="#0369a1" fill-opacity="1"><g transform="translate(182.640293, 264.839894)"><g><path d="M 2.921875 0 L 2.921875 -37.8125 L 10.3125 -39.4375 L 10.3125 -25.921875 C 11.394531 -26.828125 12.59375 -27.515625 13.90625 -27.984375 C 15.21875 -28.453125 16.648438 -28.6875 18.203125 -28.6875 C 21.441406 -28.6875 24.101562 -27.640625 26.1875 -25.546875 C 28.28125 -23.460938 29.328125 -20.78125 29.328125 -17.5 L 29.328125 0 L 21.9375 0 L 21.9375 -16.421875 C 21.9375 -18.179688 21.40625 -19.601562 20.34375 -20.6875 C 19.28125 -21.769531 17.863281 -22.3125 16.09375 -22.3125 C 14.875 -22.3125 13.769531 -22.066406 12.78125 -21.578125 C 11.789062 -21.085938 10.96875 -20.394531 10.3125 -19.5 L 10.3125 0 Z M 2.921875 0 "/></g></g></g><g fill="#0369a1" fill-opacity="1"><g transform="translate(214.669191, 264.839894)"><g><path d="M 11.828125 0.484375 C 8.804688 0.484375 6.335938 -0.316406 4.421875 -1.921875 C 2.515625 -3.523438 1.5625 -5.601562 1.5625 -8.15625 C 1.5625 -10.820312 2.585938 -12.910156 4.640625 -14.421875 C 6.691406 -15.929688 9.519531 -16.6875 13.125 -16.6875 C 14.28125 -16.6875 15.429688 -16.597656 16.578125 -16.421875 C 17.734375 -16.242188 18.867188 -15.972656 19.984375 -15.609375 L 19.984375 -17.609375 C 19.984375 -19.234375 19.476562 -20.457031 18.46875 -21.28125 C 17.457031 -22.113281 15.984375 -22.53125 14.046875 -22.53125 C 12.859375 -22.53125 11.570312 -22.335938 10.1875 -21.953125 C 8.800781 -21.578125 7.222656 -20.992188 5.453125 -20.203125 L 2.75 -25.65625 C 4.945312 -26.664062 7.082031 -27.421875 9.15625 -27.921875 C 11.226562 -28.429688 13.269531 -28.6875 15.28125 -28.6875 C 19.0625 -28.6875 22.003906 -27.773438 24.109375 -25.953125 C 26.222656 -24.140625 27.28125 -21.570312 27.28125 -18.25 L 27.28125 0 L 19.984375 0 L 19.984375 -1.9375 C 18.796875 -1.113281 17.546875 -0.503906 16.234375 -0.109375 C 14.921875 0.285156 13.453125 0.484375 11.828125 0.484375 Z M 8.640625 -8.3125 C 8.640625 -7.238281 9.109375 -6.382812 10.046875 -5.75 C 10.984375 -5.125 12.226562 -4.8125 13.78125 -4.8125 C 15 -4.8125 16.117188 -4.960938 17.140625 -5.265625 C 18.171875 -5.566406 19.117188 -6.007812 19.984375 -6.59375 L 19.984375 -10.796875 C 19.085938 -11.160156 18.144531 -11.421875 17.15625 -11.578125 C 16.164062 -11.742188 15.128906 -11.828125 14.046875 -11.828125 C 12.347656 -11.828125 11.019531 -11.507812 10.0625 -10.875 C 9.113281 -10.25 8.640625 -9.394531 8.640625 -8.3125 Z M 8.640625 -8.3125 "/></g></g></g><g fill="#0369a1" fill-opacity="1"><g transform="translate(244.645649, 264.839894)"><g><path d="M 6.75 -7.9375 L 6.75 -21.9375 L 0.96875 -21.9375 L 0.96875 -28.140625 L 6.75 -28.140625 L 6.75 -35.328125 L 14.15625 -37 L 14.15625 -28.140625 L 22.140625 -28.140625 L 22.140625 -21.9375 L 14.15625 -21.9375 L 14.15625 -9.453125 C 14.15625 -8.117188 14.441406 -7.179688 15.015625 -6.640625 C 15.585938 -6.097656 16.597656 -5.828125 18.046875 -5.828125 C 18.722656 -5.828125 19.367188 -5.875 19.984375 -5.96875 C 20.597656 -6.0625 21.265625 -6.234375 21.984375 -6.484375 L 21.984375 -0.4375 C 21.191406 -0.175781 20.238281 0.03125 19.125 0.1875 C 18.007812 0.351562 17.054688 0.4375 16.265625 0.4375 C 13.128906 0.4375 10.757812 -0.269531 9.15625 -1.6875 C 7.550781 -3.113281 6.75 -5.195312 6.75 -7.9375 Z M 6.75 -7.9375 "/></g></g></g><g fill="#0369a1" fill-opacity="1"><g transform="translate(267.546579, 264.839894)"><g><path d="M 15.875 0.15625 C 13.894531 0.15625 12.03125 -0.21875 10.28125 -0.96875 C 8.539062 -1.726562 7.03125 -2.753906 5.75 -4.046875 C 4.46875 -5.347656 3.457031 -6.867188 2.71875 -8.609375 C 1.988281 -10.359375 1.625 -12.242188 1.625 -14.265625 C 1.625 -16.242188 2 -18.101562 2.75 -19.84375 C 3.507812 -21.59375 4.535156 -23.113281 5.828125 -24.40625 C 7.128906 -25.707031 8.660156 -26.726562 10.421875 -27.46875 C 12.191406 -28.207031 14.082031 -28.578125 16.09375 -28.578125 C 17.5 -28.578125 18.835938 -28.378906 20.109375 -27.984375 C 21.390625 -27.585938 22.59375 -27.03125 23.71875 -26.3125 L 23.71875 -28.140625 L 31 -28.140625 L 31 0 C 31 3.707031 29.800781 6.566406 27.40625 8.578125 C 25.019531 10.597656 21.570312 11.609375 17.0625 11.609375 C 14.90625 11.609375 12.828125 11.390625 10.828125 10.953125 C 8.828125 10.523438 7 9.898438 5.34375 9.078125 L 7.9375 3.296875 C 9.488281 4.046875 11 4.609375 12.46875 4.984375 C 13.945312 5.367188 15.425781 5.5625 16.90625 5.5625 C 19.101562 5.5625 20.769531 5.082031 21.90625 4.125 C 23.039062 3.175781 23.609375 1.785156 23.609375 -0.046875 L 23.609375 -2.375 C 22.492188 -1.550781 21.273438 -0.921875 19.953125 -0.484375 C 18.640625 -0.0546875 17.28125 0.15625 15.875 0.15625 Z M 8.90625 -14.265625 C 8.90625 -11.992188 9.6875 -10.066406 11.25 -8.484375 C 12.820312 -6.898438 14.742188 -6.109375 17.015625 -6.109375 C 18.347656 -6.109375 19.570312 -6.332031 20.6875 -6.78125 C 21.800781 -7.226562 22.773438 -7.847656 23.609375 -8.640625 L 23.609375 -19.71875 C 22.816406 -20.507812 21.84375 -21.128906 20.6875 -21.578125 C 19.53125 -22.023438 18.320312 -22.25 17.0625 -22.25 C 14.800781 -22.25 12.875 -21.472656 11.28125 -19.921875 C 9.695312 -18.378906 8.90625 -16.492188 8.90625 -14.265625 Z M 8.90625 -14.265625 "/></g></g></g><g fill="#0369a1" fill-opacity="1"><g transform="translate(301.465881, 264.839894)"><g><path d="M 1.625 -14.046875 C 1.625 -16.097656 2.007812 -18.015625 2.78125 -19.796875 C 3.550781 -21.578125 4.613281 -23.125 5.96875 -24.4375 C 7.320312 -25.75 8.914062 -26.785156 10.75 -27.546875 C 12.582031 -28.304688 14.546875 -28.6875 16.640625 -28.6875 C 18.722656 -28.6875 20.679688 -28.304688 22.515625 -27.546875 C 24.359375 -26.785156 25.953125 -25.75 27.296875 -24.4375 C 28.648438 -23.125 29.710938 -21.578125 30.484375 -19.796875 C 31.265625 -18.015625 31.65625 -16.097656 31.65625 -14.046875 C 31.65625 -11.992188 31.265625 -10.078125 30.484375 -8.296875 C 29.710938 -6.515625 28.648438 -4.972656 27.296875 -3.671875 C 25.953125 -2.378906 24.359375 -1.351562 22.515625 -0.59375 C 20.679688 0.164062 18.722656 0.546875 16.640625 0.546875 C 14.546875 0.546875 12.582031 0.164062 10.75 -0.59375 C 8.914062 -1.351562 7.320312 -2.378906 5.96875 -3.671875 C 4.613281 -4.972656 3.550781 -6.515625 2.78125 -8.296875 C 2.007812 -10.078125 1.625 -11.992188 1.625 -14.046875 Z M 16.640625 -5.890625 C 18.796875 -5.890625 20.628906 -6.679688 22.140625 -8.265625 C 23.660156 -9.847656 24.421875 -11.773438 24.421875 -14.046875 C 24.421875 -16.347656 23.660156 -18.289062 22.140625 -19.875 C 20.628906 -21.457031 18.796875 -22.25 16.640625 -22.25 C 14.472656 -22.25 12.632812 -21.457031 11.125 -19.875 C 9.613281 -18.289062 8.859375 -16.347656 8.859375 -14.046875 C 8.859375 -11.773438 9.613281 -9.847656 11.125 -8.265625 C 12.632812 -6.679688 14.472656 -5.890625 16.640625 -5.890625 Z M 16.640625 -5.890625 "/></g></g></g><g clip-path="url(#7f8161d76a)"><path fill="#0369a1" d="M 117.191406 81.945312 L 222.957031 81.945312 C 225.371094 81.945312 227.132812 83.695312 227.132812 86.105469 L 227.132812 151.617188 C 227.132812 153.816406 225.371094 155.777344 222.957031 155.777344 L 176.558594 155.777344 L 176.558594 147.460938 L 218.78125 147.460938 L 218.78125 90.261719 L 121.367188 90.261719 L 121.367188 147.460938 L 124.4375 147.460938 C 126.644531 147.460938 128.609375 149.210938 128.609375 151.617188 L 128.609375 166.742188 L 145.757812 148.765625 C 146.414062 147.90625 147.726562 147.460938 149.066406 147.460938 L 159.621094 147.460938 L 159.621094 155.777344 L 150.824219 155.777344 L 127.507812 180.113281 C 125.75 181.867188 123.125 181.867188 121.574219 180.320312 C 120.710938 179.460938 120.261719 178.359375 120.261719 177.261719 L 120.261719 155.777344 L 117.191406 155.777344 C 114.984375 155.777344 113.015625 153.816406 113.015625 151.617188 L 113.015625 86.105469 C 113.015625 83.695312 114.984375 81.945312 117.191406 81.945312 Z M 117.191406 81.945312 " fill-opacity="1" fill-rule="nonzero"/></g><g clip-path="url(#5038fd3062)"><path fill="#0369a1" d="M 253.761719 111.089844 L 227.160156 111.089844 L 227.160156 102.773438 L 257.933594 102.773438 C 260.351562 102.773438 262.109375 104.734375 262.109375 106.933594 L 262.109375 172.445312 C 262.109375 174.644531 260.351562 176.605469 257.933594 176.605469 L 255.070312 176.605469 L 255.070312 198.089844 C 255.070312 199.1875 254.625 200.289062 253.761719 201.148438 C 252 202.695312 249.375 202.695312 247.824219 200.941406 L 224.507812 176.605469 L 164.035156 176.605469 C 161.621094 176.605469 159.652344 174.644531 159.652344 172.445312 L 159.652344 106.933594 C 159.652344 104.734375 161.621094 102.773438 164.035156 102.773438 L 210.433594 102.773438 L 210.433594 111.089844 L 168.210938 111.089844 L 168.210938 168.289062 L 226.265625 168.289062 C 227.578125 168.289062 228.683594 168.734375 229.578125 169.832031 L 246.722656 187.570312 L 246.722656 172.445312 C 246.722656 170.039062 248.480469 168.289062 250.898438 168.289062 L 253.761719 168.289062 Z M 253.761719 111.089844 " fill-opacity="1" fill-rule="nonzero"/></g><path fill="#0369a1" d="M 176.558594 124.015625 L 184.910156 124.015625 L 184.910156 132.335938 L 176.558594 132.335938 Z M 176.558594 124.015625 " fill-opacity="1" fill-rule="nonzero"/><path fill="#0369a1" d="M 189.320312 124.015625 L 197.671875 124.015625 L 197.671875 132.335938 L 189.320312 132.335938 Z M 189.320312 124.015625 " fill-opacity="1" fill-rule="nonzero"/><path fill="#0369a1" d="M 202.085938 124.015625 L 210.433594 124.015625 L 210.433594 132.335938 L 202.085938 132.335938 Z M 202.085938 124.015625 " fill-opacity="1" fill-rule="nonzero"/></svg>