<svg width="20" height="20" viewBox="0 0 20 20" fill="none" xmlns="http://www.w3.org/2000/svg">
<path d="M10.59 11L8.29 13.29C8.19627 13.383 8.12188 13.4936 8.07111 13.6154C8.02034 13.7373 7.9942 13.868 7.9942 14C7.9942 14.132 8.02034 14.2627 8.07111 14.3846C8.12188 14.5064 8.19627 14.617 8.29 14.71C8.38296 14.8037 8.49356 14.8781 8.61542 14.9289C8.73728 14.9797 8.86799 15.0058 9 15.0058C9.13201 15.0058 9.26272 14.9797 9.38458 14.9289C9.50644 14.8781 9.61704 14.8037 9.71 14.71L13.71 10.71C13.801 10.6149 13.8724 10.5027 13.92 10.38C14.02 10.1365 14.02 9.86345 13.92 9.61999C13.8724 9.49724 13.801 9.3851 13.71 9.28999L9.71 5.28999C9.61676 5.19675 9.50607 5.12279 9.38425 5.07233C9.26243 5.02187 9.13186 4.9959 9 4.9959C8.86814 4.9959 8.73757 5.02187 8.61575 5.07233C8.49393 5.12279 8.38324 5.19675 8.29 5.28999C8.19676 5.38323 8.1228 5.49392 8.07234 5.61574C8.02188 5.73757 7.99591 5.86813 7.99591 5.99999C7.99591 6.13185 8.02188 6.26242 8.07234 6.38424C8.1228 6.50606 8.19676 6.61675 8.29 6.70999L10.59 8.99999H1C0.734784 8.99999 0.48043 9.10535 0.292893 9.29289C0.105357 9.48042 0 9.73478 0 9.99999C0 10.2652 0.105357 10.5196 0.292893 10.7071C0.48043 10.8946 0.734784 11 1 11H10.59ZM10 -7.11786e-06C8.13109 -0.0083509 6.29724 0.507206 4.70647 1.48818C3.11569 2.46916 1.83165 3.8763 1 5.54999C0.880653 5.78869 0.861015 6.06502 0.945406 6.31819C1.0298 6.57137 1.21131 6.78065 1.45 6.89999C1.68869 7.01934 1.96502 7.03898 2.2182 6.95459C2.47137 6.8702 2.68065 6.68869 2.8 6.44999C3.43219 5.17331 4.39383 4.08861 5.58555 3.30798C6.77727 2.52735 8.15582 2.07911 9.57876 2.00958C11.0017 1.94006 12.4174 2.25177 13.6795 2.9125C14.9417 3.57324 16.0045 4.55902 16.7581 5.76799C17.5118 6.97695 17.9289 8.36524 17.9664 9.78938C18.0039 11.2135 17.6605 12.6218 16.9715 13.8688C16.2826 15.1158 15.2731 16.1561 14.0475 16.8824C12.8219 17.6087 11.4246 17.9945 10 18C8.50888 18.0064 7.04615 17.5924 5.77969 16.8052C4.51323 16.0181 3.49435 14.8899 2.84 13.55C2.72065 13.3113 2.51137 13.1298 2.2582 13.0454C2.00502 12.961 1.72869 12.9806 1.49 13.1C1.25131 13.2193 1.0698 13.4286 0.985406 13.6818C0.901015 13.935 0.920653 14.2113 1.04 14.45C1.83283 16.0455 3.03752 17.4002 4.52947 18.374C6.02142 19.3479 7.74645 19.9054 9.52612 19.989C11.3058 20.0726 13.0755 19.6792 14.6521 18.8495C16.2288 18.0198 17.5552 16.784 18.4941 15.2698C19.433 13.7556 19.9503 12.0181 19.9925 10.237C20.0347 8.45586 19.6003 6.69578 18.7342 5.13882C17.8682 3.58186 16.6018 2.28456 15.0663 1.3811C13.5307 0.477638 11.7816 0.000829335 10 -7.11786e-06V-7.11786e-06Z" fill="#F5F4F2"/>
</svg>
