<svg width="24" height="24" viewBox="0 0 24 24" fill="none" xmlns="http://www.w3.org/2000/svg">
<path d="M20 8C19.6222 8 19.3058 7.872 19.0507 7.616C18.7947 7.36089 18.6667 7.04444 18.6667 6.66667V5.33333H17.3333C16.9556 5.33333 16.6391 5.20578 16.384 4.95067C16.128 4.69467 16 4.37778 16 4C16 3.62222 16.128 3.30533 16.384 3.04933C16.6391 2.79422 16.9556 2.66667 17.3333 2.66667H18.6667V1.33333C18.6667 0.955556 18.7947 0.638667 19.0507 0.382667C19.3058 0.127555 19.6222 0 20 0C20.3778 0 20.6942 0.127555 20.9493 0.382667C21.2053 0.638667 21.3333 0.955556 21.3333 1.33333V2.66667H22.6667C23.0444 2.66667 23.3609 2.79422 23.616 3.04933C23.872 3.30533 24 3.62222 24 4C24 4.37778 23.872 4.69467 23.616 4.95067C23.3609 5.20578 23.0444 5.33333 22.6667 5.33333H21.3333V6.66667C21.3333 7.04444 21.2053 7.36089 20.9493 7.616C20.6942 7.872 20.3778 8 20 8ZM5.33333 18.6667H18.6667C18.9333 18.6667 19.1333 18.5444 19.2667 18.3C19.4 18.0556 19.3778 17.8222 19.2 17.6L15.5333 12.7C15.4 12.5222 15.2222 12.4333 15 12.4333C14.7778 12.4333 14.6 12.5222 14.4667 12.7L11 17.3333L8.53333 14.0333C8.4 13.8556 8.22222 13.7667 8 13.7667C7.77778 13.7667 7.6 13.8556 7.46667 14.0333L4.8 17.6C4.62222 17.8222 4.6 18.0556 4.73333 18.3C4.86667 18.5444 5.06667 18.6667 5.33333 18.6667ZM2.66667 24C1.93333 24 1.30533 23.7391 0.782667 23.2173C0.260889 22.6947 0 22.0667 0 21.3333V2.66667C0 1.93333 0.260889 1.30533 0.782667 0.782667C1.30533 0.260889 1.93333 0 2.66667 0H13.3333V6.66667C13.3333 7.04444 13.4613 7.36089 13.7173 7.616C13.9724 7.872 14.2889 8 14.6667 8H16V9.33333C16 9.71111 16.128 10.0276 16.384 10.2827C16.6391 10.5387 16.9556 10.6667 17.3333 10.6667H24V21.3333C24 22.0667 23.7391 22.6947 23.2173 23.2173C22.6947 23.7391 22.0667 24 21.3333 24H2.66667Z" fill="#808A9D"/>
</svg>
